<svg width="14" height="14" viewBox="0 0 14 14" fill="none" xmlns="http://www.w3.org/2000/svg">
<path d="M2.875 1L0.875 3.4V11.8C0.875 12.1183 1.01548 12.4235 1.26552 12.6485C1.51557 12.8736 1.85471 13 2.20833 13H11.5417C11.8953 13 12.2344 12.8736 12.4845 12.6485C12.7345 12.4235 12.875 12.1183 12.875 11.8V3.4L10.875 1H2.875Z" stroke="#585252" stroke-width="0.5" stroke-linecap="round" stroke-linejoin="round"/>
<path d="M0.875 3.40002H12.875" stroke="#585252" stroke-width="0.5" stroke-linecap="round" stroke-linejoin="round"/>
<path d="M9.54134 5.79999C9.54134 6.43651 9.26039 7.04696 8.76029 7.49704C8.2602 7.94713 7.58192 8.19999 6.87467 8.19999C6.16743 8.19999 5.48915 7.94713 4.98906 7.49704C4.48896 7.04696 4.20801 6.43651 4.20801 5.79999" stroke="#585252" stroke-width="0.5" stroke-linecap="round" stroke-linejoin="round"/>
</svg>
