<svg width="14" height="14" viewBox="0 0 14 14" fill="none" xmlns="http://www.w3.org/2000/svg">
<path d="M11.9117 2.67166C11.6191 2.378 11.2713 2.14499 10.8884 1.98601C10.5056 1.82702 10.0951 1.74518 9.68047 1.74518C9.26588 1.74518 8.85538 1.82702 8.47249 1.98601C8.0896 2.14499 7.74186 2.378 7.44922 2.67166L7.00005 3.12666L6.55088 2.67166C6.25824 2.378 5.9105 2.14499 5.52761 1.98601C5.14472 1.82702 4.73422 1.74518 4.31963 1.74518C3.90505 1.74518 3.49454 1.82702 3.11166 1.98601C2.72877 2.14499 2.38103 2.378 2.08838 2.67166C0.851717 3.90833 0.775884 5.99666 2.33338 7.58333L7.00005 12.25L11.6667 7.58333C13.2242 5.99666 13.1484 3.90833 11.9117 2.67166Z" stroke="#585252" stroke-width="0.5" stroke-linecap="round" stroke-linejoin="round"/>
</svg>
